<svg width="25" height="17" viewBox="0 0 25 17" fill="none" xmlns="http://www.w3.org/2000/svg">
<path d="M12.3303 1.00023C12.1246 0.998823 11.9177 1.00394 11.7095 1.01587C8.12072 1.23259 4.03445 3.98367 1.12295 7.35062C0.418909 8.16479 0.411088 9.35944 1.09056 10.1942C4.95391 14.9406 10.9417 18.9113 18.1617 14.7541C20.2597 13.5773 21.76 12.2449 23.5635 9.99029C24.1574 9.24773 24.2262 8.22733 23.6357 7.482C21.7904 5.1528 17.4821 1.03611 12.3303 1.00023ZM12.2579 3.00757C13.7362 3.00756 15.1539 3.61108 16.1993 4.68536C17.2446 5.75963 17.8318 7.21667 17.8318 8.73594C17.8319 9.48821 17.6877 10.2331 17.4076 10.9281C17.1275 11.6231 16.7169 12.2546 16.1993 12.7866C15.6817 13.3185 15.0672 13.7405 14.391 14.0284C13.7147 14.3162 12.9899 14.4644 12.2579 14.4644C11.5259 14.4644 10.8011 14.3162 10.1249 14.0284C9.44859 13.7405 8.83413 13.3185 8.31654 12.7866C7.79895 12.2546 7.38838 11.6231 7.10826 10.9281C6.82815 10.2331 6.68398 9.48821 6.68399 8.73594C6.684 7.21667 7.27126 5.75963 8.31657 4.68536C9.36189 3.61108 10.7796 3.00756 12.2579 3.00757Z" fill="#F4F4F4" stroke="#F4F4F4" stroke-width="0.2"/>
<path d="M8.591 8.30876C8.83972 8.08972 9.33702 7.65178 9.60406 7.41894C9.8711 7.18609 9.91346 7.15411 9.95858 7.13924C10.0037 7.12436 10.066 7.12436 10.1281 7.1379C10.1901 7.15158 10.2581 7.17902 10.3089 7.21507C10.3598 7.25113 10.3936 7.29588 10.4163 7.34191C10.4389 7.38794 10.4502 7.43519 10.453 7.47875C10.456 7.52232 10.4499 7.56206 10.283 7.72677C10.1158 7.89148 9.78911 8.17918 9.61106 8.3459C9.43302 8.5126 9.40478 8.55738 9.39911 8.59481C9.39342 8.63222 9.41032 8.66198 9.51503 8.75669C9.61975 8.8514 9.81159 9.01041 9.96983 9.1398C10.1281 9.2692 10.2524 9.36874 10.3258 9.45578C10.3993 9.54283 10.4219 9.61748 10.4247 9.67969C10.4278 9.7419 10.4106 9.79161 10.3852 9.83646C10.3598 9.8813 10.326 9.92101 10.2701 9.95076C10.2142 9.98052 10.1339 10.0007 10.0603 10.0082C9.98676 10.0157 9.91908 10.0109 9.85965 9.99329C9.80022 9.97586 9.74944 9.94604 9.52326 9.76428C9.29707 9.58252 8.89608 9.24928 8.67756 9.0713C8.45904 8.89333 8.41575 8.86609 8.37493 8.82189C8.33413 8.77769 8.29702 8.72172 8.29142 8.66942C8.28583 8.61713 8.3141 8.57231 8.32816 8.54999C8.34221 8.52764 8.34229 8.52778 8.591 8.30876Z" fill="#F4F4F4"/>
<path d="M10.9282 10.0175C11.403 9.1452 12.3524 7.46031 12.8834 6.59554C13.4145 5.73078 13.5272 5.68604 13.6316 5.68605C13.7361 5.68606 13.8328 5.73088 13.9052 5.783C13.9775 5.83515 14.0258 5.89483 14.05 5.96934C14.0741 6.04386 14.0741 6.13329 13.6149 7.0067C13.1557 7.88012 12.2397 9.53287 11.7521 10.394C11.2645 11.2552 11.1938 11.3371 11.1214 11.3819C11.0489 11.4266 10.9686 11.4415 10.9042 11.449C10.8397 11.4565 10.7594 11.4565 10.6868 11.4341C10.6143 11.4117 10.534 11.3671 10.4937 11.2924C10.4535 11.2178 10.4535 11.1134 10.4535 11.0315C10.4535 10.9495 10.4535 10.8898 10.9282 10.0175Z" fill="#F4F4F4"/>
<path d="M15.9206 8.30876C15.6719 8.08972 15.1746 7.65178 14.9075 7.41894C14.6405 7.18609 14.5981 7.15411 14.553 7.13924C14.5079 7.12436 14.4456 7.12436 14.3835 7.1379C14.3215 7.15158 14.2535 7.17902 14.2027 7.21507C14.1519 7.25113 14.118 7.29588 14.0954 7.34191C14.0727 7.38794 14.0615 7.43519 14.0586 7.47875C14.0556 7.52232 14.0617 7.56206 14.2286 7.72677C14.3958 7.89148 14.7225 8.17918 14.9005 8.3459C15.0786 8.5126 15.1068 8.55738 15.1125 8.59481C15.1182 8.63222 15.1013 8.66198 14.9966 8.75669C14.8919 8.8514 14.7 9.01041 14.5418 9.1398C14.3836 9.2692 14.2592 9.36874 14.1858 9.45578C14.1123 9.54283 14.0897 9.61748 14.0869 9.67969C14.0838 9.7419 14.101 9.79161 14.1264 9.83646C14.1518 9.8813 14.1857 9.92101 14.2415 9.95076C14.2974 9.98052 14.3777 10.0007 14.4513 10.0082C14.5249 10.0157 14.5925 10.0109 14.652 9.99329C14.7114 9.97586 14.7622 9.94604 14.9883 9.76428C15.2145 9.58252 15.6155 9.24928 15.8341 9.0713C16.0526 8.89333 16.0959 8.86609 16.1367 8.82189C16.1775 8.77769 16.2146 8.72172 16.2202 8.66942C16.2258 8.61713 16.1975 8.57231 16.1835 8.54999C16.1694 8.52764 16.1693 8.52778 15.9206 8.30876Z" fill="#F4F4F4"/>
</svg>
